PathFileType	4	(X/Y/Z)	s01c0402.trc
DataRate	CameraRate	NumFrames	NumMarkers	Units	OrigDataRate	OrigDataStartFrame	OrigNumFrames
200	200	6	48	mm	200	1250	2000
Frame#	Time	racr			lacr			c7			jug			rlel			rdr			llel			ldr			s2			lic			ric			lasi			rasi			rpsi			lpsi			rgt			lgt			rth1			rth2			rth3			rth4			rlfc			rsh1			rsh2			rsh3			rsh4			rlmal			rmmal			rcal			rtoe			rmt5			lth1			lth2			lth4			lth3			llfc			lsh1			lsh2			lsh3			lsh4			llmal			lmmal			lcal			ltoe			lmt5			SBIKE			LBIKE			RBIKE			
		X1	Y1	Z1	X2	Y2	Z2	X3	Y3	Z3	X4	Y4	Z4	X5	Y5	Z5	X6	Y6	Z6	X7	Y7	Z7	X8	Y8	Z8	X9	Y9	Z9	X10	Y10	Z10	X11	Y11	Z11	X12	Y12	Z12	X13	Y13	Z13	X14	Y14	Z14	X15	Y15	Z15	X16	Y16	Z16	X17	Y17	Z17	X18	Y18	Z18	X19	Y19	Z19	X20	Y20	Z20	X21	Y21	Z21	X22	Y22	Z22	X23	Y23	Z23	X24	Y24	Z24	X25	Y25	Z25	X26	Y26	Z26	X27	Y27	Z27	X28	Y28	Z28	X29	Y29	Z29	X30	Y30	Z30	X31	Y31	Z31	X32	Y32	Z32	X33	Y33	Z33	X34	Y34	Z34	X35	Y35	Z35	X36	Y36	Z36	X37	Y37	Z37	X38	Y38	Z38	X39	Y39	Z39	X40	Y40	Z40	X41	Y41	Z41	X42	Y42	Z42	X43	Y43	Z43	X44	Y44	Z44	X45	Y45	Z45	X46	Y46	Z46	X47	Y47	Z47	X48	Y48	Z48	
1250	6.2500	703.641086	1282.024436	-58.432462	709.072094	1271.195925	-441.946575	703.376826	1396.558997	-245.271753	687.922099	1227.366503	-243.105851	538.497398	1044.513796	40.951633	690.371190	886.038090	-59.211031	535.371499	1054.662170	-559.472082	677.340321	882.878191	-468.227310	167.831213	1201.613165	-246.102638	330.118198	1204.356057	-423.536316	323.351685	1188.640723	-91.175483	328.861389	1151.245453	-399.636071	351.891308	1144.754454	-126.146064	199.808136	1236.729042	-194.209704	194.123067	1244.909983	-300.264844	274.619962	1073.482164	-70.711431	268.912906	1069.677137	-445.460002	350.548445	961.417230	-62.936744	402.141131	897.284307	-72.657623	453.221914	824.390536	-88.584561	446.065896	929.848013	-85.653875	492.706068	720.725325	-115.279525	436.534523	615.551000	-79.301460	404.590019	536.922200	-82.798478	362.856467	458.745186	-92.225872	444.748100	520.184631	-124.834415	292.534549	352.694540	-106.696244	335.443973	360.408774	-188.248855	239.023428	335.040208	-159.649594	495.933885	247.747429	-143.104698	387.486383	245.398871	-73.427978	326.982469	958.456432	-458.989662	391.479860	905.928892	-458.971949	428.453954	935.115902	-446.251221	445.754816	832.938053	-448.332334	477.872028	722.164118	-433.995264	368.871393	694.213831	-462.757388	295.672209	648.981796	-454.847639	220.618132	608.011715	-440.915764	326.632284	603.724420	-425.903087	113.975593	550.843287	-421.971406	137.124416	532.159237	-344.101855	65.990525	567.108815	-377.999525	186.923506	321.877380	-379.357761	113.960852	399.718132	-446.503092	-229.166534	890.998607	-253.761486	-22.852846	80.639809	-456.195715	-22.810116	80.279563	-55.929453	
1251	6.2550	704.273782	1283.362762	-60.042407	708.098287	1272.668413	-443.301134	701.996902	1398.160812	-246.671552	688.437359	1229.325071	-244.766501	539.787038	1045.540045	39.997040	690.739930	886.141771	-58.862727	535.713103	1054.021067	-559.547400	677.716458	882.786354	-468.091388	167.284396	1199.473253	-245.506185	330.535890	1203.408013	-422.700599	323.087562	1186.873165	-90.676758	328.857832	1150.190046	-398.437765	351.557568	1143.069046	-125.049247	199.448655	1234.447590	-193.657750	193.412443	1243.183783	-299.450242	273.122488	1070.611279	-70.651447	270.020891	1069.200064	-445.309503	347.442667	957.532342	-62.968573	397.568971	892.028891	-72.197560	446.933321	817.826697	-88.380426	442.710127	923.754391	-85.545045	485.308271	713.580196	-114.495051	430.395215	607.405550	-78.588725	399.412984	528.384071	-82.389168	358.462517	449.858308	-91.844559	439.013147	512.386601	-125.566089	288.186568	343.792206	-106.733466	332.420135	351.984277	-187.436811	235.165460	327.048564	-159.452873	491.157784	236.715130	-143.056590	382.639894	235.514285	-73.343909	331.225864	959.368158	-459.984714	395.302362	909.097300	-460.505100	432.361874	939.072564	-447.658546	453.539995	837.431013	-450.129950	485.230460	727.784329	-436.513100	375.685442	700.913885	-464.478484	302.021344	656.679100	-455.696787	226.751254	616.841516	-441.403129	332.666861	610.890317	-427.360687	119.542128	560.190899	-422.122528	142.726858	541.771632	-344.455336	71.357471	576.350184	-378.097618	192.220154	331.378627	-379.447313	119.307574	409.259824	-446.598109	-229.167344	890.963944	-253.792715	-22.851107	80.608828	-456.213072	-22.797229	80.268401	-55.943010	
1252	6.2600	704.861463	1284.691518	-61.784770	707.104924	1274.283278	-444.727710	700.571412	1399.777623	-248.136975	688.923092	1231.293007	-245.806371	541.026882	1046.730998	39.020219	691.101638	886.340408	-58.566852	535.929777	1053.569419	-559.864502	677.985146	882.771839	-468.058410	165.807909	1198.028408	-243.942104	330.768328	1202.907212	-421.905556	322.773925	1185.330119	-90.060875	328.787748	1149.290584	-397.347629	351.278835	1141.465810	-123.950417	199.154530	1232.293300	-193.020279	192.840284	1241.431717	-298.634390	271.595334	1067.948210	-70.738802	271.037748	1068.778765	-445.185672	344.271333	953.705415	-62.620774	392.906890	887.022414	-71.695394	440.569889	811.717503	-87.788561	438.795005	917.679103	-84.860710	477.603983	706.455003	-113.655677	424.111867	599.350259	-78.091437	393.731890	520.090466	-82.060728	353.592375	441.168380	-91.473898	433.213157	504.683289	-125.671544	283.515911	335.343132	-106.645105	327.957000	343.532185	-187.010767	231.004676	319.726400	-159.289505	485.735046	225.992832	-143.162457	377.405130	226.289814	-73.296073	333.595438	961.609376	-460.060296	399.043651	912.503712	-462.048056	435.782538	943.936458	-448.944429	460.519292	842.902527	-451.961777	492.449955	733.689530	-438.653499	382.768134	707.865139	-465.921484	308.885337	664.636343	-456.801640	233.325340	625.308552	-441.371833	339.365629	618.292358	-428.843934	125.707749	569.205628	-422.336991	149.241436	551.068395	-344.218693	77.222773	585.258617	-378.194638	198.080951	340.620171	-379.657717	125.328934	418.516817	-446.721803	-229.169763	890.929141	-253.845046	-22.846280	80.584079	-456.224911	-22.790405	80.247636	-55.964270	
1253	6.2650	705.389319	1286.109196	-63.750637	706.116446	1275.890040	-446.299079	699.191746	1401.370633	-249.882274	689.205259	1233.268034	-247.596485	542.229591	1048.121789	38.158826	691.499855	886.571037	-58.448319	535.990190	1053.270936	-560.439728	678.138641	882.833358	-468.122508	164.725161	1196.433169	-242.582148	330.683981	1202.727732	-421.158129	322.538347	1184.009326	-89.461521	328.576080	1148.613071	-396.356832	351.096275	1139.870627	-122.801056	198.884879	1230.277257	-192.274396	192.289316	1239.719394	-297.721960	270.231545	1065.583127	-70.697527	271.984222	1068.594090	-445.171214	341.078556	950.224768	-62.066331	388.166525	882.337396	-71.143587	433.958652	805.938558	-87.178855	434.768655	911.904265	-84.128203	469.604501	699.419422	-112.853238	417.177087	591.631459	-77.485432	387.475880	512.185906	-81.680787	348.064679	432.916501	-91.157300	426.821161	497.204934	-125.632535	278.443026	327.225957	-106.882540	323.125230	335.348259	-186.622043	226.326253	312.852696	-159.163808	479.853969	215.584550	-143.312406	371.299218	217.066972	-73.773895	336.535599	964.443850	-460.817835	402.684602	916.139021	-463.589428	440.315234	949.769996	-448.787286	466.696726	848.987408	-453.912018	499.912952	739.851439	-441.144778	389.878007	714.683711	-467.433737	315.829314	672.474204	-457.906221	240.137001	633.726623	-441.870505	346.247627	625.647677	-430.343083	132.442010	577.847831	-422.630757	156.570028	559.897193	-344.282243	83.552458	593.795241	-378.289897	204.529855	349.306799	-379.786952	131.919331	427.450405	-446.840109	-229.189397	890.902596	-253.920922	-22.858696	80.552028	-456.239249	-22.812273	80.251466	-55.969819	
1254	6.2700	705.860767	1287.511057	-65.711001	705.072460	1277.537902	-448.027219	697.781254	1402.977789	-251.705431	689.291948	1235.184948	-249.361919	543.458310	1049.611526	37.406651	691.903571	886.793552	-58.227484	535.867822	1053.133015	-561.201786	678.197677	882.983975	-468.258056	164.379071	1194.665013	-241.789312	330.317692	1202.869237	-420.531517	322.368858	1182.784782	-88.932684	328.287923	1148.080084	-395.353806	350.940035	1138.317197	-121.765796	198.669540	1228.428922	-191.441150	191.590346	1238.244289	-296.678575	269.096931	1063.308992	-70.630258	272.683290	1068.863997	-445.182930	337.889154	946.978881	-61.522733	383.339929	878.018652	-70.572483	427.358176	800.557026	-86.408557	430.611939	906.576043	-83.571641	461.310238	692.616114	-112.078989	409.835979	584.304910	-76.811669	380.765659	504.612772	-81.242848	342.023554	425.109486	-90.757030	419.976393	490.195719	-125.228063	273.053423	319.898761	-106.903465	318.051146	327.608864	-186.168372	221.342329	306.368643	-158.986923	473.318599	205.820169	-142.553831	364.997787	208.681512	-73.379984	339.093449	967.518953	-461.451455	406.205137	919.988076	-465.118021	443.292779	955.408447	-450.039070	472.144768	855.410130	-455.937493	507.349900	746.522258	-443.661590	397.760109	722.280853	-469.295585	323.179962	680.343481	-459.063490	246.957933	642.324356	-443.154918	353.518500	633.121049	-431.694510	139.724411	586.092794	-422.997048	163.760837	568.150261	-344.942638	90.300739	601.921076	-378.381065	211.567382	357.536586	-379.928099	139.074552	435.873114	-446.937735	-229.204141	890.881318	-253.988518	-22.843529	80.531859	-456.268370	-22.794966	80.233558	-56.006624	
1255	6.2750	706.251493	1289.051801	-67.802194	703.973314	1279.096441	-449.879354	696.482882	1404.569240	-253.575161	689.256897	1236.999229	-251.277135	544.674367	1051.198896	36.842965	692.194540	887.158863	-58.015688	535.558740	1053.148014	-562.183968	678.169022	883.220700	-468.433097	164.074112	1193.172404	-240.840046	329.679631	1203.162717	-420.045274	322.361285	1181.630884	-88.419908	327.991657	1147.843053	-394.663097	350.841454	1136.764915	-120.878182	198.538025	1226.727536	-190.521166	190.912457	1236.766229	-295.803387	268.154099	1061.339971	-70.633064	273.283473	1069.446259	-445.197069	334.684122	944.150383	-61.014055	378.509849	874.119931	-70.016344	420.706174	795.695049	-85.597651	426.419715	901.504566	-82.999126	452.701769	686.031706	-110.792472	401.957047	577.534892	-75.971051	373.614717	497.545203	-80.708430	335.541635	417.825785	-90.283750	412.868519	483.609142	-124.572176	267.196369	312.944716	-107.126792	312.695521	320.462535	-185.595019	215.994485	300.589548	-158.809907	466.394455	196.101712	-142.518489	358.092549	200.520418	-73.789761	341.383099	970.920382	-461.922446	409.585083	924.030353	-466.622739	446.012464	961.209351	-451.465158	477.318346	861.904302	-457.876054	515.638300	753.351457	-445.052123	405.462481	729.613679	-470.944449	330.811929	688.040115	-460.230785	253.796083	650.715430	-443.732082	360.940630	640.548030	-432.900083	147.449958	593.931054	-423.435979	171.979489	575.909976	-345.546440	97.410971	609.597276	-378.464679	219.089315	365.278076	-379.978480	146.723802	443.820609	-447.044394	-229.217161	890.864810	-254.023337	-22.828623	80.576780	-456.214283	-22.791914	80.220804	-56.007949	
